<svg width="50" height="50" viewBox="0 0 50 50" fill="none" xmlns="http://www.w3.org/2000/svg">
<rect width="50" height="50" fill="#1A1A1A"/>
<g clip-path="url(#clip0_2637_7974)">
<path d="M25 13.5223C28.738 13.5223 29.1813 13.5363 30.6572 13.604C32.1832 13.674 33.7547 14.0217 34.8665 15.1335C35.9888 16.2558 36.326 17.8122 36.396 19.3428C36.4637 20.8187 36.4777 21.262 36.4777 25C36.4777 28.738 36.4637 29.1813 36.396 30.6572C36.3272 32.175 35.9713 33.7617 34.8665 34.8665C33.7442 35.9888 32.189 36.326 30.6572 36.396C29.1813 36.4637 28.738 36.4777 25 36.4777C21.262 36.4777 20.8187 36.4637 19.3428 36.396C17.8367 36.3272 16.229 35.9632 15.1335 34.8665C14.017 33.75 13.674 32.1785 13.604 30.6572C13.5363 29.1813 13.5223 28.738 13.5223 25C13.5223 21.262 13.5363 20.8187 13.604 19.3428C13.6728 17.8308 14.0322 16.2348 15.1335 15.1335C16.2535 14.0135 17.8157 13.674 19.3428 13.604C20.8187 13.5363 21.262 13.5223 25 13.5223ZM25 11C21.1978 11 20.7207 11.0163 19.2273 11.084C17.0632 11.1832 14.9142 11.7852 13.3497 13.3497C11.7793 14.92 11.1832 17.0643 11.084 19.2273C11.0163 20.7207 11 21.1978 11 25C11 28.8022 11.0163 29.2793 11.084 30.7727C11.1832 32.9345 11.7875 35.0893 13.3497 36.6503C14.9188 38.2195 17.0667 38.8168 19.2273 38.916C20.7207 38.9837 21.1978 39 25 39C28.8022 39 29.2793 38.9837 30.7727 38.916C32.9357 38.8168 35.087 38.2137 36.6503 36.6503C38.2218 35.0788 38.8168 32.9357 38.916 30.7727C38.9837 29.2793 39 28.8022 39 25C39 21.1978 38.9837 20.7207 38.916 19.2273C38.8168 17.0632 38.2137 14.913 36.6503 13.3497C35.0835 11.7828 32.9298 11.182 30.7727 11.084C29.2793 11.0163 28.8022 11 25 11Z" fill="white"/>
<path d="M25 17.811C21.0298 17.811 17.811 21.0299 17.811 25C17.811 28.9702 21.0298 32.189 25 32.189C28.9701 32.189 32.189 28.9702 32.189 25C32.189 21.0299 28.9701 17.811 25 17.811ZM25 29.6667C22.4228 29.6667 20.3333 27.5772 20.3333 25C20.3333 22.4229 22.4228 20.3334 25 20.3334C27.5771 20.3334 29.6666 22.4229 29.6666 25C29.6666 27.5772 27.5771 29.6667 25 29.6667Z" fill="white"/>
<path d="M32.4736 19.2064C33.4015 19.2064 34.1536 18.4543 34.1536 17.5264C34.1536 16.5986 33.4015 15.8464 32.4736 15.8464C31.5458 15.8464 30.7936 16.5986 30.7936 17.5264C30.7936 18.4543 31.5458 19.2064 32.4736 19.2064Z" fill="white"/>
</g>
<defs>
<clipPath id="clip0_2637_7974">
<rect width="28" height="28" fill="white" transform="translate(11 11)"/>
</clipPath>
</defs>
</svg>
