<svg width="50" height="50" viewBox="0 0 50 50" fill="none" xmlns="http://www.w3.org/2000/svg">
<rect width="50" height="50" fill="#1A1A1A"/>
<g clip-path="url(#clip0_2637_7969)">
<path fill-rule="evenodd" clip-rule="evenodd" d="M25 11C17.2685 11 11 17.2685 11 25C11 32.7315 17.2685 39 25 39C32.7315 39 39 32.7315 39 25C39 17.2685 32.7315 11 25 11ZM31.489 20.5212C31.279 22.7343 30.3667 28.1068 29.9035 30.586C29.7075 31.636 29.3202 31.9872 28.9468 32.021C28.1337 32.0957 27.5165 31.4832 26.729 30.9675C25.497 30.1602 24.8005 29.6573 23.6047 28.8687C22.2222 27.9575 23.1182 27.457 23.9057 26.6392C24.1122 26.4245 27.6938 23.166 27.7638 22.8708C27.772 22.8335 27.7813 22.6958 27.6985 22.6235C27.6157 22.5512 27.4955 22.5757 27.4092 22.5955C27.2855 22.6235 25.3173 23.9243 21.5035 26.498C20.9447 26.8818 20.4383 27.0685 19.9845 27.0592C19.4852 27.0487 18.5238 26.7768 17.8087 26.5435C16.9325 26.2588 16.2348 26.1072 16.2955 25.6242C16.327 25.3722 16.6735 25.1143 17.3362 24.8507C21.4172 23.0727 24.139 21.9002 25.5005 21.3332C29.389 19.7162 30.1963 19.435 30.7237 19.4257C31.384 19.4163 31.5427 19.9612 31.489 20.5212Z" fill="white"/>
</g>
<defs>
<clipPath id="clip0_2637_7969">
<rect width="28" height="28" fill="white" transform="translate(11 11)"/>
</clipPath>
</defs>
</svg>
