<svg width="50" height="50" viewBox="0 0 50 50" fill="none" xmlns="http://www.w3.org/2000/svg">
<rect width="50" height="50" fill="#1A1A1A"/>
<g clip-path="url(#clip0_2637_7981)">
<path fill-rule="evenodd" clip-rule="evenodd" d="M34.8735 15.0693C32.2532 12.4467 28.7695 11.0012 25.0584 11C17.4109 11 11.1867 17.223 11.1832 24.874C11.182 27.3193 11.8214 29.7063 13.0359 31.811L11.0665 39L18.4212 37.0703C20.4477 38.1763 22.7297 38.7585 25.0514 38.7597H25.0572C32.7035 38.7597 38.9289 32.5355 38.9324 24.8845C38.9347 21.178 37.4927 17.6908 34.8735 15.0693ZM25.0584 36.4158H25.0537C22.984 36.4158 20.9552 35.8593 19.1842 34.8082L18.763 34.5585L14.3985 35.703L15.564 31.447L15.2899 31.0107C14.1349 29.1743 13.5259 27.0522 13.527 24.874C13.5294 18.5157 18.7035 13.3427 25.0642 13.3427C28.1442 13.3427 31.0399 14.5443 33.2169 16.7237C35.3939 18.9042 36.592 21.801 36.5909 24.8822C36.5874 31.2428 31.4144 36.4158 25.0584 36.4158ZM31.384 27.779C31.0375 27.6052 29.333 26.7663 29.0145 26.6508C28.6972 26.5353 28.4662 26.477 28.234 26.8235C28.0019 27.17 27.3392 27.9517 27.1362 28.1838C26.9344 28.4148 26.7314 28.444 26.3849 28.2702C26.0384 28.0963 24.9207 27.7312 23.5965 26.5493C22.5664 25.63 21.8699 24.4948 21.668 24.1472C21.4662 23.7995 21.647 23.6128 21.8197 23.4402C21.976 23.285 22.1662 23.0353 22.34 22.8323C22.515 22.6317 22.5722 22.487 22.6889 22.2548C22.8044 22.0238 22.7472 21.8208 22.6597 21.647C22.5722 21.4743 21.8792 19.7675 21.591 19.0733C21.3099 18.3967 21.024 18.4888 20.8105 18.4783C20.6087 18.4678 20.3777 18.4667 20.1455 18.4667C19.9145 18.4667 19.5389 18.553 19.2215 18.9007C18.9042 19.2483 18.0082 20.0872 18.0082 21.7928C18.0082 23.4997 19.2507 25.1482 19.4234 25.3792C19.596 25.6102 21.8675 29.1125 25.3454 30.614C26.1725 30.971 26.8189 31.1845 27.3217 31.3443C28.1524 31.608 28.9084 31.5707 29.5057 31.482C30.1719 31.3828 31.5567 30.6432 31.846 29.8335C32.1354 29.0238 32.1354 28.3285 32.0479 28.185C31.9615 28.0392 31.7305 27.9528 31.384 27.779Z" fill="white"/>
</g>
<defs>
<clipPath id="clip0_2637_7981">
<rect width="28" height="28" fill="white" transform="translate(11 11)"/>
</clipPath>
</defs>
</svg>
